<mxfile host="app.diagrams.net" modified="2023-05-09T19:16:20.688Z" agent="5.0 (Macintosh; Intel Mac OS X 10_15_7) AppleWebKit/537.36 (KHTML, like Gecko) Chrome/112.0.0.0 Safari/537.36" etag="lI3KYAZAiV9NHSMzlhwg" version="20.4.0" type="github">
  <diagram id="ic090zSNlHPKKBpedIEB" name="Page-1">
    <mxGraphModel dx="541" dy="351" grid="1" gridSize="10" guides="1" tooltips="1" connect="1" arrows="1" fold="1" page="1" pageScale="1" pageWidth="827" pageHeight="1169" math="0" shadow="0">
      <root>
        <mxCell id="0" />
        <mxCell id="1" parent="0" />
        <mxCell id="iwj5JXNZy72_lDeeGzMe-1" value="&lt;font style=&quot;font-size: 10px;&quot;&gt;Library&lt;/font&gt;" style="shape=cylinder3;whiteSpace=wrap;html=1;boundedLbl=1;backgroundOutline=1;size=15;" vertex="1" parent="1">
          <mxGeometry x="90" y="90" width="60" height="80" as="geometry" />
        </mxCell>
        <mxCell id="iwj5JXNZy72_lDeeGzMe-2" value="&lt;font style=&quot;font-size: 10px;&quot;&gt;Regular Training&lt;/font&gt;" style="rounded=1;whiteSpace=wrap;html=1;" vertex="1" parent="1">
          <mxGeometry x="200" y="90" width="90" height="40" as="geometry" />
        </mxCell>
        <mxCell id="iwj5JXNZy72_lDeeGzMe-3" value="" style="rounded=0;whiteSpace=wrap;html=1;" vertex="1" parent="1">
          <mxGeometry x="30" y="40" width="40" height="30" as="geometry" />
        </mxCell>
        <mxCell id="iwj5JXNZy72_lDeeGzMe-4" value="" style="rounded=0;whiteSpace=wrap;html=1;" vertex="1" parent="1">
          <mxGeometry x="80" y="40" width="40" height="30" as="geometry" />
        </mxCell>
        <mxCell id="iwj5JXNZy72_lDeeGzMe-5" value="" style="rounded=0;whiteSpace=wrap;html=1;" vertex="1" parent="1">
          <mxGeometry x="130" y="40" width="40" height="30" as="geometry" />
        </mxCell>
        <mxCell id="iwj5JXNZy72_lDeeGzMe-6" value="" style="rounded=0;whiteSpace=wrap;html=1;" vertex="1" parent="1">
          <mxGeometry x="180" y="40" width="40" height="30" as="geometry" />
        </mxCell>
        <mxCell id="iwj5JXNZy72_lDeeGzMe-8" value="&lt;font style=&quot;font-size: 10px;&quot;&gt;Noise-Aware Training&lt;/font&gt;" style="rounded=1;whiteSpace=wrap;html=1;" vertex="1" parent="1">
          <mxGeometry x="200" y="140" width="90" height="40" as="geometry" />
        </mxCell>
      </root>
    </mxGraphModel>
  </diagram>
</mxfile>
